<svg width="48" height="48" viewBox="0 0 48 48" fill="none" xmlns="http://www.w3.org/2000/svg">
<g clip-path="url(#clip0_1529_14185)">
<path d="M48 24C48 30.3652 45.4714 36.4697 40.9706 40.9706C36.4697 45.4714 30.3652 48 24 48C17.6348 48 11.5303 45.4714 7.02943 40.9706C2.52856 36.4697 0 30.3652 0 24C0 17.6348 2.52856 11.5303 7.02943 7.02944C11.5303 2.52856 17.6348 0 24 0C30.3652 0 36.4697 2.52856 40.9706 7.02944C45.4714 11.5303 48 17.6348 48 24Z" fill="#F5222D"/>
<path d="M34.7969 28.3053C35.2947 28.241 35.7629 28.0326 36.1437 27.7056C36.5245 27.3786 36.8013 26.9474 36.9401 26.4651C37.0396 25.6788 37.0642 24.8848 37.0133 24.0939C36.9563 22.2099 34.3943 20.8071 33.2255 20.1747C32.0567 19.5423 28.0817 18.5985 23.6933 18.4113C20.1276 18.3224 16.592 19.0836 13.3787 20.6319C11.4089 21.5889 11.1647 22.4169 10.8365 23.0895C10.5083 23.7621 10.4021 24.5109 10.7909 26.0535C11.1797 27.5961 11.9597 27.5355 12.3425 27.6585C13.5795 27.8886 14.8537 27.818 16.0577 27.4527C17.3453 26.9487 17.7605 26.1939 17.7515 25.6311C17.7754 25.1538 17.7696 24.6754 17.7341 24.1989C17.6681 23.7909 17.8649 23.5011 18.3761 23.0775C18.8873 22.6539 22.4123 22.5735 23.0837 22.5807C23.7551 22.5879 28.2407 22.5867 29.1707 23.1915C30.1007 23.7963 30.0323 24.4107 30.0227 24.5835C29.9526 25.0836 29.9241 25.5888 29.9375 26.0937C30.0449 26.4404 30.227 26.7594 30.471 27.0281C30.7151 27.2968 31.0151 27.5087 31.3499 27.6489C31.7369 27.7233 33.4889 28.4049 34.7969 28.3053Z" fill="white"/>
</g>
<defs>
<clipPath id="clip0_1529_14185">
<rect width="48" height="48" fill="white" transform="matrix(-1 0 0 1 48 0)"/>
</clipPath>
</defs>
</svg>
