<svg width="189" height="50" viewBox="0 0 189 50" fill="none" xmlns="http://www.w3.org/2000/svg">
<path d="M97.0564 10.1873C97.3685 10.0999 97.6681 10.0125 97.9553 9.92509C98.205 9.85019 98.4609 9.77528 98.7231 9.70037C98.9853 9.62547 99.2037 9.5568 99.3785 9.49438L99.1163 10.4869C99.0414 10.7615 98.9728 10.9675 98.9103 11.1049C98.7855 11.4419 98.6388 11.7541 98.4703 12.0412C98.3017 12.3283 98.1426 12.578 97.9927 12.7903C97.818 13.04 97.6369 13.2709 97.4497 13.4831L95.1463 14.176L97.0377 14.5131C96.788 14.7253 96.5196 14.9438 96.2324 15.1685C95.9828 15.3558 95.6987 15.5524 95.3804 15.7584C95.062 15.9644 94.7281 16.1548 94.3785 16.3296C94.0289 16.5044 93.6388 16.5949 93.2081 16.6011C92.7774 16.6074 92.3685 16.5793 91.9815 16.5169C91.5321 16.4544 91.0826 16.3483 90.6332 16.1985C90.7705 15.9863 90.9203 15.7491 91.0826 15.4869C91.22 15.2622 91.3854 14.9969 91.5789 14.691C91.7724 14.3851 91.9753 14.0449 92.1875 13.6704C92.7868 12.6592 93.3673 11.6667 93.9291 10.6929C94.4909 9.7191 94.9965 8.83895 95.4459 8.05243C95.9578 7.14107 96.4509 6.27965 96.9253 5.46816C96.3386 6.14232 95.7206 6.89763 95.0714 7.73408C94.5096 8.44569 93.8854 9.29151 93.1987 10.2715C92.5121 11.2516 91.813 12.3221 91.1014 13.4831C90.9515 13.7204 90.783 13.995 90.5957 14.3071C90.4085 14.6192 90.2118 14.9501 90.0059 15.2996C89.7999 15.6492 89.5876 16.0081 89.3691 16.3764C89.1507 16.7447 88.9353 17.1036 88.7231 17.4532C88.2237 18.2647 87.7118 19.1136 87.1875 20C87.2 19.7378 87.2499 19.4007 87.3373 18.9888C87.4122 18.6392 87.5371 18.2022 87.7118 17.6779C87.8866 17.1536 88.1363 16.5356 88.4609 15.824C88.6731 15.3745 88.8354 15.025 88.9478 14.7753C89.0602 14.5256 89.1476 14.3321 89.21 14.1948C89.2724 14.0449 89.3223 13.9451 89.3598 13.8951C89.2974 13.8202 89.2849 13.6704 89.3223 13.4457C89.3473 13.2459 89.4191 12.9557 89.5377 12.5749C89.6563 12.1941 89.8592 11.6604 90.1463 10.9738C90.4334 10.2747 90.8111 9.52247 91.2793 8.71723C91.7474 7.91198 92.2749 7.11298 92.8617 6.32022C93.4484 5.52747 94.0851 4.75968 94.7718 4.01685C95.4584 3.27403 96.1607 2.61548 96.8785 2.0412C97.5964 1.46692 98.3142 0.995631 99.0321 0.627341C99.7499 0.259051 100.446 0.0499376 101.12 0C101.133 0.436954 101.089 1.01436 100.989 1.73221C100.889 2.45006 100.764 3.21785 100.614 4.03558C100.465 4.85331 100.296 5.68352 100.109 6.52622C99.9216 7.36891 99.7406 8.13358 99.5658 8.82022L97.0564 10.1873Z" fill="#685200"/>
<path d="M71.8039 31.84L73.0839 30.656C73.9799 31.408 75.2119 32.512 75.8199 33.232L74.4439 34.592C73.9159 33.84 72.7159 32.656 71.8039 31.84ZM70.7799 35.312H75.0199V41.648L76.2679 40.784C76.3799 41.296 76.6519 42.096 76.8439 42.464C74.0919 44.464 73.5799 44.896 73.2919 45.248C73.1159 44.848 72.6039 44.144 72.2999 43.856C72.6519 43.568 73.1159 42.944 73.1159 42.08V37.152H70.7799V35.312ZM76.7799 31.44H84.7639V39.2H82.8279V38.416H79.0999V42.528C79.0999 43.216 79.2439 43.328 80.1399 43.328C80.5559 43.328 82.2999 43.328 82.7959 43.328C83.6599 43.328 83.7879 42.96 83.8999 40.816C84.3479 41.152 85.1799 41.472 85.7239 41.616C85.4839 44.384 84.9239 45.168 82.9399 45.168C82.4599 45.168 80.3799 45.168 79.9319 45.168C77.7879 45.168 77.1159 44.608 77.1159 42.544V36.608H82.8279V33.344H76.7799V31.44ZM96.4119 33.344H91.7079L91.6279 33.408C92.2679 33.952 93.0999 34.432 94.0759 34.864C94.9719 34.416 95.7559 33.92 96.4119 33.344ZM91.9319 30.336L93.9799 30.752C93.7559 31.072 93.5319 31.392 93.2759 31.696H97.9639L98.2839 31.6L99.5479 32.352C98.7639 33.68 97.6279 34.752 96.2839 35.632C97.9959 36.128 99.9479 36.448 101.948 36.624C101.548 37.056 101.02 37.888 100.78 38.4C98.3959 38.128 96.1079 37.584 94.1239 36.784C92.5399 37.472 90.7799 37.968 88.9559 38.32H99.6119V45.424H97.5159V44.976H90.5399V45.44H88.5399V38.4L87.2759 38.592C87.1319 38.08 86.7639 37.248 86.4439 36.816C88.3639 36.608 90.2519 36.24 91.9319 35.696C91.3239 35.328 90.7479 34.928 90.2199 34.48C89.6599 34.864 89.0519 35.216 88.3959 35.552C88.1239 35.104 87.5319 34.432 87.1159 34.112C89.4839 33.12 91.0679 31.68 91.9319 30.336ZM90.5399 42.32V43.344H93.1159V42.32H90.5399ZM90.5399 40.832H93.1159V39.968H90.5399V40.832ZM97.5159 42.32H95.0999V43.344H97.5159V42.32ZM97.5159 40.832V39.968H95.0999V40.832H97.5159ZM106.348 39.856H108.284V42.688C108.284 43.2 108.444 43.264 109.388 43.264C109.804 43.264 111.58 43.264 112.124 43.264C112.892 43.264 113.036 43.04 113.116 41.52C113.532 41.808 114.348 42.112 114.876 42.208C114.636 44.448 114.092 45.008 112.268 45.008C111.788 45.008 109.66 45.008 109.196 45.008C106.924 45.008 106.348 44.464 106.348 42.704V39.856ZM108.636 38.944L110.124 38.096C110.988 38.912 111.98 40.064 112.396 40.896L110.796 41.84C110.428 41.04 109.5 39.808 108.636 38.944ZM114.108 40.128L115.772 39.472C116.556 40.672 117.34 42.272 117.628 43.36L115.82 44.112C115.58 43.056 114.86 41.392 114.108 40.128ZM104.236 39.92L105.948 40.56C105.58 41.824 105.036 43.424 104.396 44.464L102.652 43.584C103.308 42.608 103.916 41.168 104.236 39.92ZM108.812 30.784L110.604 30.24C110.924 30.8 111.244 31.52 111.436 32.096H117.148V33.84H106.988V36.24H116.348V38H105.068V33.84H103.052V32.096H109.372C109.212 31.648 109.004 31.168 108.812 30.784Z" fill="#685200"/>
</svg>
